<?xml version="1.0" standalone="no"?>
<!DOCTYPE svg PUBLIC "-//W3C//DTD SVG 20010904//EN"
 "http://www.w3.org/TR/2001/REC-SVG-20010904/DTD/svg10.dtd">
<svg version="1.0" xmlns="http://www.w3.org/2000/svg"
 width="300.000000pt" height="344.000000pt" viewBox="0 0 300.000000 344.000000"
 preserveAspectRatio="xMidYMid meet">
<metadata>
Created by potrace 1.10, written by Peter Selinger 2001-2011
</metadata>
<g transform="translate(0.000000,344.000000) scale(0.100000,-0.100000)"
fill="#000000" stroke="none">
<path d="M777 3206 c-3 -8 0 -20 8 -26 7 -6 16 -27 20 -47 4 -24 9 -32 15 -24
6 10 13 10 34 -4 14 -10 26 -14 26 -10 0 4 7 2 15 -5 9 -7 15 -8 15 -2 0 5
-18 17 -39 25 -40 16 -58 33 -47 44 3 4 15 -2 26 -12 36 -33 21 0 -18 38 -42
41 -47 43 -55 23z"/>
<path d="M786 3023 c-12 -13 -6 -32 9 -27 19 8 19 5 -1 -35 -8 -17 -13 -37
-11 -44 4 -7 6 -6 6 4 1 9 7 19 15 22 8 3 19 14 25 25 8 15 5 23 -14 40 -13
11 -26 18 -29 15z"/>
<path d="M757 2880 c-3 -11 -21 -29 -41 -41 -20 -11 -36 -27 -36 -35 0 -8 -10
-19 -22 -24 -45 -18 -78 -62 -78 -101 0 -16 59 -69 78 -69 12 0 10 4 -8 17
-14 9 -26 17 -28 19 -2 1 1 11 7 22 9 17 8 19 -9 15 -21 -6 -25 4 -14 32 9 22
56 45 93 45 31 0 87 17 80 25 -3 2 -24 -1 -48 -6 -24 -5 -46 -7 -50 -4 -3 4
18 27 47 52 28 25 52 52 52 59 0 21 -17 17 -23 -6z"/>
<path d="M804 2856 c-5 -13 -3 -21 4 -24 7 -2 12 -11 12 -20 1 -15 3 -14 15 2
19 25 19 36 1 36 -8 0 -16 6 -19 13 -3 8 -7 5 -13 -7z"/>
<path d="M1120 2806 c0 -25 5 -48 10 -51 6 -4 10 11 10 39 0 25 -4 48 -10 51
-6 4 -10 -11 -10 -39z"/>
<path d="M792 2761 c-23 -20 -31 -33 -26 -45 6 -15 11 -13 36 14 40 44 33 66
-10 31z"/>
<path d="M956 2759 c-28 -22 -34 -57 -13 -78 12 -13 8 -18 -40 -47 -17 -11
-17 -12 0 -31 25 -29 21 -56 -13 -86 -31 -28 -37 -42 -20 -52 14 -9 -11 -45
-32 -45 -10 0 -18 5 -18 10 0 12 -22 9 -32 -4 -3 -6 -50 -9 -102 -8 -95 2 -96
1 -96 -22 0 -22 5 -24 69 -28 71 -5 95 -13 86 -28 -3 -5 -17 -5 -32 1 -23 9
-25 8 -13 -6 9 -11 26 -15 53 -13 55 4 75 -24 83 -119 6 -75 -5 -113 -31 -113
-8 0 -15 -4 -15 -10 0 -5 7 -10 16 -10 8 0 12 -4 9 -10 -3 -5 3 -10 14 -10 23
0 29 -28 10 -47 -8 -8 -8 -21 1 -47 6 -20 8 -41 3 -48 -8 -14 -5 -336 3 -350
3 -5 2 -82 -2 -173 l-7 -165 -29 0 c-28 0 -29 2 -23 32 4 18 11 37 16 43 14
14 11 25 -6 25 -20 0 -35 -39 -33 -85 1 -24 5 -34 14 -31 6 2 20 -1 30 -8 17
-13 17 -15 -7 -43 -54 -64 -51 -62 -77 -32 -13 16 -22 34 -21 41 1 7 -1 20 -5
30 -4 9 -1 29 8 47 20 37 20 52 2 45 -8 -3 -13 -11 -10 -18 2 -6 -6 -22 -20
-35 -21 -19 -23 -27 -15 -49 11 -28 4 -57 -11 -47 -5 3 -18 1 -27 -5 -14 -9
-10 -10 24 -7 38 5 44 2 67 -28 22 -28 24 -38 16 -65 -6 -21 -6 -39 1 -51 12
-23 29 -25 29 -4 0 8 -5 15 -10 15 -16 0 -1 50 31 103 16 27 29 51 29 55 0 4
7 16 16 27 12 17 16 18 24 5 5 -8 5 -21 -1 -31 -5 -9 -10 -70 -12 -136 -5
-144 -20 -183 -82 -213 -49 -24 -165 -29 -147 -7 12 14 -2 46 -14 34 -10 -10
-10 -74 0 -84 9 -10 315 -8 372 2 24 4 80 2 130 -5 79 -12 86 -14 64 -24 -34
-15 -111 -69 -131 -92 -18 -21 -34 -89 -20 -79 5 3 12 19 16 36 5 20 16 34 33
42 15 6 29 14 32 17 3 3 25 21 50 40 25 19 47 38 48 42 2 5 34 8 71 8 75 0 81
3 74 31 -4 16 -14 19 -58 19 -60 0 -108 17 -146 52 -23 21 -27 36 -34 114 -5
49 -9 206 -9 349 l-2 260 201 0 c221 0 237 -4 289 -65 27 -33 31 -44 41 -123
6 -42 9 -48 28 -45 20 3 22 9 25 92 2 71 6 94 21 110 10 12 26 36 35 54 20 38
33 41 46 7 5 -14 14 -25 21 -25 6 0 9 3 7 8 -33 68 -39 72 -68 49 -8 -7 -25
-32 -36 -55 -13 -26 -25 -39 -29 -32 -10 16 -11 223 -1 298 8 62 8 62 -17 62
-26 0 -37 -16 -37 -53 0 -12 -11 -45 -24 -74 -34 -73 -80 -96 -185 -92 -42 2
-81 0 -87 -4 -7 -4 -38 -2 -70 4 -62 11 -139 5 -150 -13 -5 -8 5 -9 32 -5 21
3 64 3 94 -1 30 -5 109 -5 176 -2 110 6 123 9 156 33 19 15 41 27 49 27 12 0
12 2 0 9 -12 8 -12 13 -3 24 7 8 19 32 27 53 l15 39 -6 -60 c-3 -33 -6 -79 -7
-102 -1 -24 -5 -43 -10 -43 -5 0 -5 -9 -2 -20 5 -15 0 -23 -17 -30 -21 -10
-20 -10 8 -6 30 5 32 3 38 -34 7 -47 -3 -122 -15 -114 -5 3 -9 16 -9 28 0 24
-30 63 -71 89 -36 24 -222 59 -231 44 -5 -8 -43 -11 -122 -10 -87 2 -117 -1
-126 -12 -7 -9 -10 -49 -8 -114 2 -85 1 -101 -12 -101 -13 0 -13 -1 0 -10 11
-7 15 -27 15 -75 0 -36 -4 -65 -8 -65 -4 0 -19 7 -32 16 -13 9 -30 14 -37 11
-21 -7 -48 12 -48 33 0 11 -4 20 -10 20 -14 0 -12 -46 3 -57 6 -6 29 -14 51
-17 48 -9 93 -50 76 -71 -12 -14 -10 -79 8 -212 11 -79 31 -106 105 -140 59
-27 46 -37 -35 -27 -91 10 -162 10 -211 -1 -34 -7 -39 -5 -44 14 -6 24 -23 29
-23 6 0 -11 -12 -15 -52 -15 l-51 0 23 25 c12 13 27 23 33 22 6 -1 18 27 28
63 10 36 18 67 19 70 3 8 -1 71 -6 94 -2 12 -1 35 2 51 l7 30 13 -30 c12 -27
12 -23 7 40 -3 39 -9 74 -14 80 -10 11 -12 60 -2 93 4 18 11 23 29 19 29 -5
29 -6 3 39 -22 41 -30 97 -18 131 5 13 4 25 -1 28 -5 3 -8 20 -6 38 2 18 1 51
-4 74 -7 41 -6 42 15 37 27 -7 68 12 59 27 -4 6 -11 6 -20 -2 -8 -6 -25 -8
-40 -5 -26 7 -26 9 -20 59 4 29 7 61 6 72 0 11 -2 67 -3 125 -2 58 -7 113 -11
122 -13 28 -3 53 19 50 11 -2 38 -5 60 -7 39 -4 39 -4 -4 4 -24 4 -50 16 -57
26 -15 20 -19 95 -6 96 64 6 125 35 137 67 4 12 1 11 -15 -5 -11 -13 -33 -25
-48 -29 -15 -3 -40 -10 -56 -15 -37 -12 -36 -12 -36 9 0 35 -38 78 -88 102
-28 14 -48 28 -44 31 8 8 134 13 247 10 67 -2 69 -2 40 -15 -31 -14 -75 -56
-59 -56 5 0 15 9 21 19 23 37 103 49 318 49 110 0 240 -3 289 -8 72 -7 93 -6
110 5 26 19 67 19 112 0 20 -8 40 -13 44 -10 4 3 7 -28 7 -68 -1 -39 3 -103 9
-140 11 -71 2 -98 -17 -50 -23 56 -43 89 -78 126 -72 76 -141 90 -443 90 -158
0 -232 -4 -242 -12 -16 -13 -22 -211 -15 -483 2 -92 1 -100 -22 -124 -13 -14
-36 -33 -51 -41 -14 -9 -24 -22 -22 -28 3 -7 19 1 41 22 44 40 53 41 53 8 0
-14 5 -25 10 -25 6 0 11 11 11 25 1 14 3 46 4 73 2 26 3 74 2 107 -1 174 0
274 2 305 1 19 -1 60 -4 92 l-7 56 103 4 c164 5 448 -7 461 -20 7 -7 19 -12
26 -12 8 0 34 -16 58 -35 39 -33 71 -86 112 -187 8 -18 19 -28 33 -28 20 0 20
4 15 78 -2 42 -9 95 -15 117 -5 22 -6 75 -3 118 l7 79 80 31 c55 22 73 33 58
35 -13 2 -33 -4 -45 -12 -12 -9 -33 -16 -46 -16 -12 0 -34 -11 -48 -25 -23
-23 -32 -25 -102 -24 -77 2 -515 2 -562 0 -24 -1 -24 -1 -5 18 23 21 115 54
115 41 0 -5 -7 -10 -15 -12 -10 -2 -6 -7 11 -15 22 -10 24 -10 19 7 -3 11 -1
30 6 42 9 19 9 21 -2 11 -7 -7 -33 -13 -58 -13 -42 0 -49 -4 -82 -42 -36 -41
-37 -41 -108 -44 -54 -1 -74 2 -78 12 -4 11 -8 11 -17 1 -8 -7 -33 -11 -66 -8
-46 3 -52 5 -37 16 19 13 23 35 7 35 -18 0 -10 20 21 49 18 18 26 32 19 36 -6
3 -7 12 -3 18 4 7 6 25 4 40 -2 22 2 30 18 34 12 3 22 10 22 17 5 34 3 52 -5
64 -7 10 -3 19 14 33 19 14 21 19 9 19 -9 0 -28 -9 -43 -21z"/>
<path d="M1023 2760 c-13 -5 -23 -17 -23 -26 0 -10 5 -14 15 -10 9 3 15 0 15
-9 0 -21 40 -85 54 -85 24 0 69 -58 63 -80 -3 -14 -1 -20 6 -17 7 2 14 12 15
22 2 10 16 28 30 40 15 13 24 26 20 30 -3 4 -16 -3 -27 -14 -25 -25 -41 -27
-41 -6 0 8 -6 15 -12 15 -40 2 -112 110 -93 140 7 12 7 12 -22 0z"/>
<path d="M867 2733 c-4 -3 -7 -15 -7 -26 0 -16 3 -17 15 -7 8 7 15 19 15 26 0
15 -12 19 -23 7z"/>
<path d="M1112 2706 c-6 -13 -8 -27 -5 -30 10 -10 43 -7 43 4 0 6 -6 10 -14
10 -9 0 -12 7 -9 20 7 28 -1 25 -15 -4z"/>
<path d="M650 2694 c0 -8 4 -14 10 -14 5 0 14 -19 21 -42 10 -39 9 -44 -10
-56 -12 -8 -21 -24 -21 -36 1 -18 3 -17 17 9 14 24 18 27 21 12 2 -10 -3 -29
-12 -42 -9 -13 -16 -31 -16 -39 0 -8 -10 -16 -22 -18 -13 -2 -24 -11 -26 -23
-3 -16 -1 -18 9 -7 7 6 21 12 32 12 21 0 46 52 53 113 3 23 7 44 10 49 3 4 -2
21 -11 39 -22 41 -14 46 29 20 34 -21 46 -45 61 -119 7 -33 -9 -67 -26 -56 -5
3 -9 -2 -9 -10 0 -8 -8 -17 -17 -19 -12 -3 -8 -5 9 -6 17 -1 33 7 45 22 10 13
24 22 31 19 16 -5 15 6 -2 23 -7 8 -21 46 -31 85 -10 40 -22 69 -29 68 -6 -1
-22 5 -36 14 -31 20 -80 21 -80 2z"/>
<path d="M2116 2662 c-4 -13 -5 -40 -1 -61 6 -34 3 -43 -25 -71 -17 -18 -28
-35 -25 -38 4 -4 11 1 17 11 5 10 19 23 31 28 12 5 33 16 47 24 24 14 24 15 3
15 -22 0 -26 9 -36 90 l-3 25 -8 -23z"/>
<path d="M973 2638 c-18 -9 -20 -14 -11 -40 6 -16 8 -41 5 -56 -5 -22 -1 -29
21 -40 14 -6 32 -12 38 -12 7 0 18 -8 23 -17 9 -15 10 -14 11 10 0 23 -4 27
-27 27 -39 0 -53 12 -52 41 1 13 -1 31 -5 40 -5 11 0 22 14 32 26 18 14 29
-17 15z"/>
<path d="M2230 2516 c0 -13 6 -26 12 -28 21 -7 -18 -56 -63 -79 -45 -23 -46
-39 -2 -20 16 6 41 27 56 46 21 26 25 40 21 65 -8 38 -24 50 -24 16z"/>
<path d="M2127 2490 c-26 -30 -43 -68 -35 -76 3 -2 11 8 18 24 8 15 23 39 33
55 24 36 15 35 -16 -3z"/>
<path d="M1128 2505 c-4 -4 0 -17 8 -29 8 -13 11 -26 7 -31 -5 -4 -2 -6 6 -3
8 2 16 9 18 15 5 13 -30 56 -39 48z"/>
<path d="M2315 2470 c3 -5 21 -10 38 -10 24 0 28 3 17 10 -20 13 -63 13 -55 0z"/>
<path d="M1390 2460 c-12 -8 -9 -10 11 -10 14 0 55 -2 90 -5 l64 -4 -50 13
c-61 17 -95 19 -115 6z"/>
<path d="M2565 2370 c-3 -5 -15 -10 -26 -10 -11 0 -17 -4 -14 -10 9 -15 52
-12 58 5 7 17 -9 30 -18 15z"/>
<path d="M763 2274 c-4 -10 0 -22 8 -28 9 -6 18 -20 22 -30 6 -14 11 -16 18
-9 15 15 2 53 -18 53 -9 0 -13 6 -9 15 3 8 1 15 -5 15 -5 0 -12 -7 -16 -16z"/>
<path d="M502 2248 c-17 -17 -15 -31 3 -24 10 4 15 -1 15 -16 0 -16 3 -19 11
-11 10 10 2 63 -10 63 -4 0 -12 -5 -19 -12z"/>
<path d="M2060 2241 c0 -4 14 -26 31 -47 35 -44 46 -56 33 -34 -55 90 -64 101
-64 81z"/>
<path d="M1380 2230 c8 -5 28 -10 43 -10 32 0 77 -21 96 -44 8 -9 25 -16 40
-16 14 0 46 -9 70 -20 51 -24 71 -25 71 -6 0 8 7 17 16 20 9 4 14 9 10 13 -3
3 -15 -2 -26 -12 -19 -17 -25 -17 -53 -6 -18 7 -49 16 -70 21 -21 4 -48 17
-61 29 -12 11 -46 25 -75 31 -66 12 -80 12 -61 0z"/>
<path d="M1950 2222 c-19 -9 -37 -17 -39 -19 -2 -1 15 -20 37 -41 l40 -39 -26
-26 c-15 -15 -21 -27 -14 -27 6 0 21 9 32 20 11 11 25 20 31 20 6 0 8 7 5 16
-3 9 -6 20 -6 25 0 4 -6 6 -13 3 -18 -6 -67 35 -50 42 20 9 59 43 48 43 -5 0
-26 -8 -45 -17z"/>
<path d="M2617 2224 c-2 -2 -2 -16 1 -30 5 -29 37 -54 70 -54 21 0 22 2 12 15
-7 8 -9 15 -4 15 11 0 -18 20 -30 20 -5 0 -3 -7 4 -15 20 -24 2 -31 -19 -8
-13 13 -16 25 -10 35 6 11 4 18 -5 21 -8 3 -16 4 -19 1z"/>
<path d="M666 2183 c-3 -4 17 -13 45 -20 38 -10 55 -10 65 -2 20 17 6 31 -18
18 -15 -8 -27 -8 -45 0 -28 13 -37 14 -47 4z"/>
<path d="M2040 2123 c0 -13 57 -63 71 -63 6 0 4 6 -3 13 -55 49 -68 59 -68 50z"/>
<path d="M2237 2090 c5 -38 4 -40 -20 -40 -14 0 -29 -5 -33 -12 -5 -8 0 -9 17
-5 13 4 29 7 35 7 15 0 27 46 19 71 -11 34 -23 20 -18 -21z"/>
<path d="M2093 2027 c-10 -18 -102 -59 -114 -51 -5 3 -9 0 -9 -5 0 -25 80 -4
117 31 20 19 23 19 45 4 31 -22 77 -20 113 4 35 23 30 26 -11 5 -24 -11 -38
-12 -70 -4 -21 6 -44 15 -51 21 -7 6 -14 4 -20 -5z"/>
<path d="M777 1773 c-4 -3 -7 -14 -7 -24 0 -10 -15 -29 -32 -44 -31 -25 -31
-26 -8 -20 30 8 55 40 55 72 1 26 1 26 -8 16z"/>
<path d="M1185 1710 c17 -4 39 -8 50 -9 16 -1 17 1 5 9 -8 5 -31 9 -50 9 l-35
-1 30 -8z"/>
<path d="M686 1614 c-9 -24 -8 -24 19 -12 13 6 22 15 19 19 -9 15 -31 10 -38
-7z"/>
<path d="M747 1583 c7 -41 -10 -63 -49 -63 -24 0 -28 -3 -19 -13 6 -8 8 -18 4
-23 -4 -5 -1 -3 7 4 8 6 22 12 32 12 10 0 28 10 39 21 12 12 33 28 48 35 l26
14 -31 0 c-21 0 -37 7 -47 23 -16 22 -16 22 -10 -10z"/>
<path d="M1430 1463 c0 -3 15 -19 33 -34 17 -16 26 -28 19 -29 -7 0 -10 -5 -7
-10 4 -6 12 -5 21 4 12 13 10 19 -17 45 -29 29 -49 39 -49 24z"/>
<path d="M1690 1426 c0 -13 3 -31 6 -40 9 -23 27 -20 19 3 -3 11 -1 22 4 25
14 9 2 36 -15 36 -8 0 -14 -10 -14 -24z"/>
<path d="M1406 1343 c-12 -12 -6 -23 12 -23 10 0 23 -5 30 -12 8 -8 12 -8 12
-1 0 14 -46 44 -54 36z"/>
<path d="M1335 1314 l-50 -14 44 4 c24 3 48 9 54 15 6 6 9 10 7 10 -3 -1 -27
-8 -55 -15z"/>
<path d="M1127 1194 c-5 -22 -1 -33 15 -46 24 -21 46 -24 30 -5 -7 7 -18 28
-25 46 l-14 33 -6 -28z"/>
<path d="M1145 1110 c3 -5 12 -10 20 -10 7 0 16 -6 18 -12 3 -7 6 -3 6 10 1
17 -4 22 -25 22 -14 0 -23 -4 -19 -10z"/>
<path d="M1693 1096 c0 -27 33 -44 34 -17 0 18 -15 41 -27 41 -4 0 -7 -11 -7
-24z"/>
<path d="M1177 1039 c-4 -15 0 -27 10 -34 10 -7 14 -19 10 -29 -9 -23 -26 -20
-39 8 -6 14 -17 27 -24 30 -9 3 -7 -8 7 -40 24 -57 26 -82 4 -64 -12 10 -15
10 -15 -4 0 -9 8 -16 20 -16 22 0 45 -34 34 -52 -5 -7 1 -9 18 -5 17 5 30 2
38 -8 20 -25 29 -17 17 15 -9 23 -16 28 -32 24 -16 -4 -24 3 -38 31 -21 44
-21 42 3 48 23 6 36 51 24 85 -12 33 -30 38 -37 11z"/>
<path d="M1670 1039 c0 -16 -5 -20 -20 -16 -11 3 -18 1 -14 -4 3 -5 16 -9 28
-9 13 0 29 -7 36 -15 25 -30 30 -14 8 25 -26 44 -38 51 -38 19z"/>
<path d="M1000 941 c0 -41 4 -60 14 -64 16 -7 26 1 26 20 0 7 -6 12 -12 11 -9
-2 -13 12 -13 45 0 26 -3 47 -7 47 -5 0 -8 -27 -8 -59z"/>
<path d="M770 923 c-10 -36 -10 -47 0 -56 10 -9 11 -9 6 1 -4 7 1 27 12 45 14
25 16 35 7 44 -8 8 -15 -1 -25 -34z"/>
<path d="M615 928 c-6 -15 10 -68 20 -68 4 0 4 4 1 9 -8 13 14 19 49 14 23 -4
35 1 50 18 20 22 20 22 0 14 -47 -18 -66 -17 -90 5 -20 19 -26 20 -30 8z"/>
<path d="M890 867 c0 -8 8 -22 19 -31 17 -16 19 -16 23 1 5 19 -13 43 -32 43
-5 0 -10 -6 -10 -13z"/>
<path d="M990 720 c0 -5 -15 -19 -32 -30 -37 -22 -28 -26 21 -9 30 11 41 32
21 44 -5 3 -10 1 -10 -5z"/>
<path d="M798 693 c-11 -14 -10 -15 10 -8 18 5 30 1 48 -16 13 -12 24 -18 24
-12 0 12 -29 38 -52 46 -9 3 -22 -1 -30 -10z"/>
<path d="M1219 682 c19 -36 81 -40 81 -5 0 13 -3 13 -16 2 -13 -10 -20 -9 -46
5 -30 18 -30 18 -19 -2z"/>
<path d="M938 640 c-11 -39 2 -102 19 -96 8 4 20 6 26 6 8 0 8 3 0 11 -6 6 -9
18 -6 25 3 8 -1 14 -10 14 -10 0 -17 11 -19 33 -3 30 -3 31 -10 7z"/>
<path d="M757 643 c-4 -7 -5 -24 -1 -38 4 -14 2 -25 -4 -25 -15 0 -71 -49 -84
-73 -6 -12 12 -1 42 25 56 49 70 52 70 14 0 -14 8 -26 18 -30 9 -3 24 -9 32
-13 8 -3 0 12 -17 33 -16 21 -34 57 -39 79 -6 24 -13 35 -17 28z"/>
<path d="M1049 554 c-21 -25 -14 -93 13 -121 15 -17 22 -35 20 -61 -1 -29 1
-33 8 -17 13 31 12 72 -4 78 -7 3 -18 19 -24 36 -8 23 -7 32 4 42 15 12 20 59
5 59 -5 0 -15 -7 -22 -16z"/>
<path d="M896 502 c-3 -6 -1 -14 5 -17 5 -4 8 -13 5 -21 -6 -16 55 -30 81 -18
16 7 15 8 -4 11 -13 3 -23 12 -24 21 0 14 -2 14 -8 -2 -7 -17 -9 -17 -28 9
-12 17 -23 24 -27 17z"/>
<path d="M810 470 c0 -3 5 -11 12 -18 15 -15 68 -16 68 -1 0 6 -12 9 -27 7
-16 -1 -27 2 -26 8 1 6 -5 11 -13 11 -7 0 -14 -3 -14 -7z"/>
<path d="M612 376 c-10 -22 -9 -25 9 -23 14 1 17 6 13 20 -5 17 -2 19 27 14
19 -3 61 -8 94 -11 49 -5 54 -4 30 4 -16 6 -60 13 -96 16 -62 5 -66 4 -77 -20z"/>
<path d="M1020 250 c0 -5 -8 -7 -17 -3 -17 5 -17 5 -1 -12 9 -9 21 -14 27 -11
14 9 14 36 1 36 -5 0 -10 -4 -10 -10z"/>
<path d="M1044 185 c1 -25 19 -34 31 -15 7 11 -12 40 -25 40 -4 0 -7 -11 -6
-25z"/>
<path d="M880 154 c0 -15 107 -70 117 -60 3 3 -11 12 -32 20 -20 9 -34 20 -30
26 3 5 -6 15 -20 20 -34 13 -35 13 -35 -6z"/>
<path d="M1014 123 c2 -18 10 -29 22 -32 10 -2 25 -8 32 -14 7 -5 16 -7 19 -3
7 6 -59 76 -71 76 -2 0 -3 -12 -2 -27z"/>
</g>
</svg>
